<svg xmlns="http://www.w3.org/2000/svg" viewBox="0 0 600 250">
  <path
    fill="#ffffff"
    d="M108.8 32C59.2 32 20 69.9 20 124.7c0 54.7 39.2 92.6 88.8 92.6 44.2 0 75.2-26 107.8-61.1 3.3-3.5 6.6-6.9 9.9-10.4 3.4 3.5 6.7 7 9.9 10.4 32.6 35.1 63.6 61.1 107.8 61.1 49.7 0 88.8-37.9 88.8-92.6 0-54.8-39.1-92.7-88.8-92.7-44.2 0-75.2 26-107.8 61.1-3.3 3.5-6.6 6.9-9.9 10.4-3.4-3.5-6.7-6.9-9.9-10.4C184 58 153 32 108.8 32Zm0 31.5c24 0 45.8 17.4 77.5 52.5 3 3.4 6 6.7 9 10-3 3.3-6 6.6-9 10-31.7 35.1-53.5 52.5-77.5 52.5-32.8 0-58.2-27.4-58.2-64.7 0-37.4 25.4-64.8 58.2-64.8Zm282.4 0c32.8 0 58.2 27.4 58.2 64.8 0 37.3-25.4 64.7-58.2 64.7-24 0-45.8-17.4-77.5-52.5-3-3.4-6-6.7-9-10 3-3.3 6-6.6 9-10 31.7-35.1 53.5-52.5 77.5-52.5Z"
  />
</svg>